<svg xmlns="http://www.w3.org/2000/svg" width="52" height="47" viewBox="0 0 52 47">
    <g fill="none" fill-rule="evenodd">
        <g>
            <g>
                <path stroke="#EE7623" stroke-width="3.404" d="M0 14.243L32.936 14.243 32.936 0 0 0z" transform="translate(-1060.000000, -1741.000000) translate(1062.000000, 1743.000000)"/>
                <path stroke="#EE7623" stroke-width="3.404" d="M0 28.366L32.936 28.366 32.936 14.123 0 14.123z" transform="translate(-1060.000000, -1741.000000) translate(1062.000000, 1743.000000)"/>
                <path stroke="#EE7623" stroke-width="3.404" d="M0 42.489L32.936 42.489 32.936 28.247 0 28.247z" transform="translate(-1060.000000, -1741.000000) translate(1062.000000, 1743.000000)"/>
                <path fill="#08553F" d="M33.352 42.563c-7.733 0-14.002-6.34-14.002-14.16s6.269-14.16 14.002-14.16c7.733 0 14.001 6.34 14.001 14.16s-6.268 14.16-14 14.16z" transform="translate(-1060.000000, -1741.000000) translate(1062.000000, 1743.000000)"/>
                <path stroke="#EE7623" stroke-width="3.404" d="M47.353 28.403c0 7.82-6.268 14.16-14 14.16-7.734 0-14.003-6.34-14.003-14.16s6.269-14.16 14.002-14.16c7.733 0 14.001 6.34 14.001 14.16z" transform="translate(-1060.000000, -1741.000000) translate(1062.000000, 1743.000000)"/>
                <path fill="#EE7623" d="M27.772 30.693h3.274c0 .91.874 1.82 2.728 1.82 1.802 0 2.592-.744 2.592-1.516 0-.83-.463-1.326-1.882-1.574l-2.155-.358c-2.893-.497-4.42-1.821-4.42-4.084 0-2.32 1.91-4.278 5.729-4.278 3.847 0 5.84 2.4 5.84 4.442H36.23c0-.91-.954-1.737-2.592-1.737-1.636 0-2.402.772-2.402 1.545 0 .69.52 1.16 1.802 1.38l2.238.36c2.946.468 4.392 1.903 4.392 4.247 0 2.32-1.937 4.278-5.894 4.278-4.364 0-6.002-2.731-6.002-4.525" transform="translate(-1060.000000, -1741.000000) translate(1062.000000, 1743.000000)"/>
                <path stroke="#EE7623" stroke-width="3.482" d="M33.869 21.399L33.869 18.017M33.869 37.686L33.869 34.303" transform="translate(-1060.000000, -1741.000000) translate(1062.000000, 1743.000000)"/>
            </g>
        </g>
    </g>
</svg>
