<svg xmlns="http://www.w3.org/2000/svg" xmlns:xlink="http://www.w3.org/1999/xlink" width="63" height="78" viewBox="0 0 63 78">
    <defs>
        <path id="akcolrluba" d="M0 0L29.076 0 29.076 29.25 0 29.25z"/>
        <path id="mdt11okizc" d="M0 0L31.225 0 31.225 41.438 0 41.438z"/>
        <path id="26vi8ro1te" d="M0 0L46.039 0 46.039 29.25 0 29.25z"/>
        <path id="cz3hd2bu4g" d="M0 0L7.269 0 7.269 7.313 0 7.313z"/>
        <path id="z6ohz2rfpi" d="M0 0L7.269 0 7.269 7.313 0 7.313z"/>
    </defs>
    <g fill="none" fill-rule="evenodd">
        <g>
            <g>
                <g transform="translate(-1121.000000, -2761.000000) translate(1121.000000, 2761.000000) translate(12.720505, 0.000000)">
                    <mask id="7m19zzcfwb" fill="#fff">
                        <use xlink:href="#akcolrluba"/>
                    </mask>
                    <path fill="#BEF0BF" d="M14.54 2.437c6.69.001 12.113 5.458 12.113 12.19-.001 6.73-5.425 12.186-12.116 12.185-6.69 0-12.114-5.457-12.114-12.187C2.43 7.896 7.851 2.444 14.54 2.437m0 26.813c8.03 0 14.537-6.549 14.537-14.626C29.075 6.546 22.566-.001 14.536 0 6.509 0 0 6.548 0 14.625c.009 8.074 6.513 14.617 14.54 14.625" mask="url(#7m19zzcfwb)"/>
                </g>
                <g transform="translate(-1121.000000, -2761.000000) translate(1121.000000, 2761.000000) translate(0.000000, 27.343926)">
                    <mask id="6qmmk8v05d" fill="#fff">
                        <use xlink:href="#mdt11okizc"/>
                    </mask>
                    <path fill="#BEF0BF" d="M30.095 39H3.635c-.668 0-1.21-.542-1.212-1.213V15.018c0-8.113 4.245-12.58 11.952-12.58h5.26C18.345 1.78 17.143.961 16.058 0h-1.683C5.239 0 0 5.474 0 15.018v22.77c.004 2.016 1.63 3.649 3.635 3.65h27.59c-.213-.304-.393-.63-.537-.971L30.095 39z" mask="url(#6qmmk8v05d)"/>
                </g>
                <path fill="#BEF0BF" d="M38.46 27.344c-1.085.962-2.287 1.78-3.577 2.437h5.258c7.708 0 11.953 4.468 11.953 12.581v2.045h2.423v-2.045c0-9.544-5.24-15.018-14.376-15.018H38.46z" transform="translate(-1121.000000, -2761.000000) translate(1121.000000, 2761.000000)"/>
                <g transform="translate(-1121.000000, -2761.000000) translate(1121.000000, 2761.000000) translate(16.960705, 39.609380)">
                    <mask id="o23qpu35tf" fill="#fff">
                        <use xlink:href="#26vi8ro1te"/>
                    </mask>
                    <path fill="#BEF0BF" d="M45.692 8.175c-.4-.56-1.051-.883-1.736-.862H18.92c-.669 0-1.211.546-1.211 1.219S18.25 9.75 18.92 9.75h24.512l-1.355 3.655H29.68c-.669 0-1.211.546-1.211 1.219s.542 1.219 1.211 1.219h11.492l-1.13 3.047h-7.939c-.669 0-1.211.545-1.211 1.218 0 .673.542 1.22 1.211 1.22h7.036l-1.903 5.133c-.108.189-.296.318-.51.35H18.772c-.231-.032-.436-.169-.557-.37L7.828.759C7.642.3 7.198 0 6.706 0H1.212C.542 0 0 .546 0 1.219s.542 1.218 1.212 1.218H5.89l10.08 24.924c.497 1.118 1.585 1.852 2.801 1.889h17.955c1.225-.036 2.314-.794 2.78-1.935L45.889 10.1c.256-.635.182-1.356-.197-1.925" mask="url(#o23qpu35tf)"/>
                </g>
                <g transform="translate(-1121.000000, -2761.000000) translate(1121.000000, 2761.000000) translate(36.344539, 70.687500)">
                    <mask id="jzusq7jzph" fill="#fff">
                        <use xlink:href="#cz3hd2bu4g"/>
                    </mask>
                    <path fill="#BEF0BF" d="M3.634 4.875c-.669 0-1.211-.546-1.211-1.219s.542-1.219 1.211-1.219c.67 0 1.212.546 1.212 1.22 0 .672-.543 1.217-1.212 1.218m0-4.875C1.627 0 0 1.637 0 3.656c0 2.02 1.627 3.657 3.634 3.657 2.008 0 3.635-1.637 3.635-3.657C7.267 1.638 5.64.002 3.634 0" mask="url(#jzusq7jzph)"/>
                </g>
                <g transform="translate(-1121.000000, -2761.000000) translate(1121.000000, 2761.000000) translate(46.036392, 70.687500)">
                    <mask id="3u1uoi3z5j" fill="#fff">
                        <use xlink:href="#z6ohz2rfpi"/>
                    </mask>
                    <path fill="#BEF0BF" d="M3.634 4.875c-.669 0-1.211-.546-1.211-1.219s.542-1.219 1.211-1.219c.67 0 1.212.546 1.212 1.22 0 .672-.543 1.217-1.212 1.218m0-4.875C1.627 0 0 1.637 0 3.656c0 2.02 1.627 3.657 3.634 3.657 2.008 0 3.635-1.637 3.635-3.657C7.267 1.638 5.64.002 3.634 0" mask="url(#3u1uoi3z5j)"/>
                </g>
            </g>
        </g>
    </g>
</svg>
