<svg xmlns="http://www.w3.org/2000/svg" width="22" height="22" viewBox="0 0 22 22">
    <defs>
        <filter id="3n721yz0za" color-interpolation-filters="auto">
            <feColorMatrix in="SourceGraphic" values="0 0 0 0 0.847000 0 0 0 0 0.847000 0 0 0 0 0.847000 0 0 0 1.000000 0"/>
        </filter>
    </defs>
    <g fill="none" fill-rule="evenodd">
        <g filter="url(#3n721yz0za)" transform="translate(-85.000000, -407.000000)">
            <g>
                <path fill="#000" fill-rule="nonzero" d="M11 0C4.913 0 0 4.913 0 11s4.913 11 11 11 11-4.913 11-11S17.087 0 11 0zm4.18 15.253c-.147.147-.342.22-.513.22-.171 0-.367-.073-.514-.22l-3.96-3.96V4.84c0-.416.318-.733.734-.733.415 0 .733.317.733.733v5.842l3.52 3.52c.293.318.293.782 0 1.051z" transform="translate(85.000000, 407.000000)"/>
            </g>
        </g>
    </g>
</svg>
