<svg xmlns="http://www.w3.org/2000/svg" xmlns:xlink="http://www.w3.org/1999/xlink" width="155" height="38" viewBox="0 0 155 38">
    <defs>
        <path id="jngdhldr8a" d="M0 0L20.555 0 20.555 21.415 0 21.415z"/>
        <path id="0uxwwdnlec" d="M0 38L155 38 155 0 0 0z"/>
    </defs>
    <g fill="none" fill-rule="evenodd">
        <g>
            <g>
                <g>
                    <path fill="#EE7623" d="M142.83 0L140.214 8.359 135.784 3.843 132 7.636 137.643 13.287 134.244 16.694 138.297 20.752 141.695 17.347 147.336 23 151.122 19.21 146.614 14.773 155 12.107 153.411 6.827 145.749 9.262 148.109 1.516z" transform="translate(-85.000000, -5080.000000) translate(0.000000, 5004.000000) translate(85.000000, 76.000000)"/>
                    <g transform="translate(-85.000000, -5080.000000) translate(0.000000, 5004.000000) translate(85.000000, 76.000000)">
                        <g transform="translate(0.000000, 16.584252)">
                            <mask id="ud6ciq7zmb" fill="#fff">
                                <use xlink:href="#jngdhldr8a"/>
                            </mask>
                            <path fill="#FFF" d="M5.858 8.192c.195-.958.665-1.757 1.405-2.376.811-.677 1.866-1.019 3.138-1.019 1.24 0 2.266.342 3.05 1.017.715.618 1.162 1.418 1.331 2.378H5.858zm14.697 2.276c0-2.027-.423-3.856-1.256-5.442-.836-1.591-2.033-2.84-3.554-3.714C14.223.442 12.441 0 10.44 0 8.414 0 6.588.45 5.016 1.332c-1.575.884-2.82 2.153-3.698 3.77C.88 5.908.552 6.784.331 7.719c-.221.937-.332 1.936-.332 2.99 0 2.108.45 3.996 1.34 5.607.89 1.616 2.15 2.886 3.738 3.768 1.59.884 3.42 1.33 5.446 1.33 4.282 0 7.426-1.788 9.347-5.319l.116-.213-4.67-2.39-.106.236c-.39.864-.937 1.574-1.625 2.105-.677.523-1.652.788-2.9.788-1.375 0-2.538-.423-3.455-1.255-.856-.774-1.34-1.764-1.44-2.938h14.765v-1.96z" mask="url(#ud6ciq7zmb)"/>
                        </g>
                        <path fill="#FFF" d="M32.108 32.726L31.667 32.726 26.629 17.146 20.535 17.146 27.708 37.441 36.067 37.441 43.238 17.146 37.144 17.146z"/>
                        <mask id="2l69qxlxjd" fill="#fff">
                            <use xlink:href="#0uxwwdnlec"/>
                        </mask>
                        <path fill="#FFF" d="M45.022 37.441L50.674 37.441 50.674 17.146 45.022 17.146zM63.366 10.994h-5.652v6.153h-5.077V21.7h5.077v11.025c0 .054 0 .108.004.16l-.004 4.557h10.729v-4.557h-5.077V21.7h5.569v-4.553h-5.57v-6.153zM76.105 24.776c.193-.958.664-1.756 1.405-2.376.81-.677 1.863-1.019 3.135-1.019 1.241 0 2.268.342 3.052 1.017.714.618 1.163 1.418 1.332 2.378h-8.924zM90.8 27.052c0-2.027-.421-3.855-1.257-5.442-.835-1.59-2.03-2.84-3.553-3.714-1.52-.869-3.305-1.312-5.303-1.312-2.028 0-3.852.45-5.426 1.332-1.574.884-2.82 2.154-3.698 3.77-.437.807-.768 1.682-.987 2.617-.221.938-.332 1.936-.332 2.99 0 2.108.45 3.996 1.341 5.607.89 1.617 2.149 2.886 3.738 3.769 1.586.884 3.419 1.33 5.447 1.33 4.281 0 7.426-1.788 9.346-5.32l.116-.213-4.67-2.39-.105.236c-.392.866-.939 1.575-1.628 2.105-.674.524-1.65.788-2.897.788-1.376 0-2.539-.423-3.455-1.254-.856-.775-1.341-1.765-1.443-2.939H90.8v-1.96zM108 28.97c-.236 1.3-.755 2.33-1.545 3.064-.782.724-1.888 1.091-3.291 1.091-1.531 0-2.8-.524-3.77-1.56-.976-1.04-1.47-2.478-1.47-4.27 0-1.794.494-3.232 1.47-4.274.97-1.034 2.239-1.56 3.77-1.56 1.4 0 2.498.38 3.266 1.129.775.756 1.248 1.757 1.404 2.975l.032.26 5.495-1.143-.046-.232c-.475-2.362-1.612-4.283-3.381-5.711-1.77-1.428-4.076-2.152-6.852-2.152-1.998 0-3.845.461-5.486 1.369-1.643.91-2.954 2.197-3.9 3.825-.944 1.627-1.424 3.482-1.424 5.513 0 2.029.48 3.885 1.424 5.511.946 1.628 2.259 2.916 3.9 3.826 1.641.909 3.488 1.369 5.486 1.369 2.776 0 5.074-.718 6.831-2.132 1.752-1.411 2.951-3.309 3.562-5.64l.062-.235-5.493-1.274-.045.25zM135.32 20.952c-.673-1.286-1.641-2.307-2.877-3.032-1.236-.726-2.67-1.093-4.263-1.093-3.077 0-5.208 1.047-6.332 3.115h-.013V8.995h-5.65v28.446h5.65V26.973c0-1.771.42-3.164 1.253-4.14.821-.963 1.996-1.452 3.496-1.452 1.343 0 2.371.352 3.058 1.044.687.697 1.036 1.77 1.036 3.191v11.825h5.651V25.375c0-1.655-.34-3.143-1.01-4.423M45.022 14.39L50.674 14.39 50.674 8.875 45.022 8.875z" mask="url(#2l69qxlxjd)"/>
                    </g>
                </g>
            </g>
        </g>
    </g>
</svg>
