<svg xmlns="http://www.w3.org/2000/svg" width="71" height="79" viewBox="0 0 71 79">
    <g fill="none" fill-rule="evenodd">
        <g>
            <g>
                <path stroke="#BEF0BF" stroke-width="2.228" d="M65.238 32.533c0 17.968-14.604 32.533-32.62 32.533C14.605 65.066 0 50.501 0 32.533 0 14.566 14.604 0 32.619 0s32.619 14.566 32.619 32.533z" transform="translate(-251.000000, -2759.000000) translate(253.000000, 2761.000000)"/>
                <path stroke="#BEF0BF" stroke-width="2.228" d="M46.402 32.533c0 17.968-6.17 32.533-13.783 32.533-7.612 0-13.783-14.565-13.783-32.533C18.836 14.566 25.006 0 32.619 0c7.612 0 13.783 14.566 13.783 32.533zM2.381 20.311L19.844 20.311 45.397 20.311 62.856 20.311M67 44.757L66.792 44.757 63.828 44.757 62.856 44.757 47.581 44.757 45.397 44.757 19.844 44.757 2.381 44.757" transform="translate(-251.000000, -2759.000000) translate(253.000000, 2761.000000)"/>
                <path fill="#08553F" d="M59.102 67.124c-6.784 6.766-16.284 9.172-25.001 7.22-1.962-8.692.45-18.17 7.236-24.938 6.785-6.768 16.29-9.175 25.005-7.218 1.958 8.693-.455 18.169-7.24 24.936" transform="translate(-251.000000, -2759.000000) translate(253.000000, 2761.000000)"/>
                <path stroke="#BEF0BF" stroke-width="2.228" d="M59.102 67.124c-6.784 6.766-16.284 9.172-25.001 7.22-1.962-8.692.45-18.17 7.236-24.938 6.785-6.768 16.29-9.175 25.005-7.218 1.958 8.693-.455 18.169-7.24 24.936zM34.101 74.344L66.343 42.188" transform="translate(-251.000000, -2759.000000) translate(253.000000, 2761.000000)"/>
            </g>
        </g>
    </g>
</svg>
