<svg xmlns="http://www.w3.org/2000/svg" width="20" height="20" viewBox="0 0 20 20">
    <defs>
        <filter id="8vv5scl3wa" color-interpolation-filters="auto">
            <feColorMatrix in="SourceGraphic" values="0 0 0 0 1.000000 0 0 0 0 1.000000 0 0 0 0 1.000000 0 0 0 1.000000 0"/>
        </filter>
    </defs>
    <g fill="none" fill-rule="evenodd">
        <g>
            <g filter="url(#8vv5scl3wa)" transform="translate(-1236.000000, -2514.000000) translate(0.000000, 2116.000000)">
                <g fill="#000" fill-rule="nonzero">
                    <path d="M11.002 9.004v-.008l-.005.008h.005z" transform="translate(1236.000000, 398.000000)"/>
                    <path d="M18.521 0H1.477C.662 0 0 .642 0 1.433v17.135C0 19.358.662 20 1.477 20h17.044c.817 0 1.479-.642 1.479-1.432V1.433C20 .64 19.338 0 18.521 0zM6.062 16.743h-3.02V7.712h3.02v9.03zM4.552 6.478h-.02c-1.014 0-1.67-.694-1.67-1.56 0-.886.677-1.56 1.71-1.56s1.669.674 1.69 1.56c0 .866-.657 1.56-1.71 1.56zm12.403 10.265h-3.02V11.91c0-1.214-.438-2.042-1.53-2.042-.835 0-1.332.559-1.551 1.098-.08.193-.1.462-.1.733v5.043h-3.02s.04-8.184 0-9.03h3.02V8.99c.402-.616 1.12-1.492 2.724-1.492 1.987 0 3.477 1.291 3.477 4.065v5.18z" transform="translate(1236.000000, 398.000000)"/>
                </g>
            </g>
        </g>
    </g>
</svg>
