<svg xmlns="http://www.w3.org/2000/svg" xmlns:xlink="http://www.w3.org/1999/xlink" width="167" height="41" viewBox="0 0 167 41">
    <defs>
        <path id="son10kgpfa" d="M0 0L22.146 0 22.146 23.105 0 23.105z"/>
        <path id="m61axb4iwc" d="M0 41L167 41 167 0 0 0z"/>
    </defs>
    <g fill="none" fill-rule="evenodd">
        <g>
            <g>
                <path fill="#EE7623" d="M153.772 0L150.928 9.086 146.113 4.178 142 8.3 148.133 14.442 144.439 18.145 148.844 22.556 152.538 18.855 158.67 25 162.784 20.88 157.885 16.057 167 13.16 165.273 7.421 156.945 10.068 159.51 1.648z" transform="translate(-85.000000, -28.000000) translate(85.000000, 28.000000)"/>
                <g transform="translate(-85.000000, -28.000000) translate(85.000000, 28.000000)">
                    <g transform="translate(0.000000, 17.893535)">
                        <mask id="9ytfy9kixb" fill="#fff">
                            <use xlink:href="#son10kgpfa"/>
                        </mask>
                        <path fill="#07553F" d="M6.312 8.838c.21-1.033.716-1.894 1.514-2.563.873-.73 2.01-1.1 3.38-1.1 1.337 0 2.441.37 3.285 1.098.772.667 1.254 1.53 1.436 2.565H6.312zm15.834 2.457c0-2.188-.455-4.16-1.353-5.872-.9-1.717-2.19-3.065-3.829-4.008C15.324.478 13.404 0 11.25 0c-2.183 0-4.15.485-5.844 1.437-1.698.954-3.039 2.324-3.985 4.068C.948 6.375.594 7.32.356 8.328.118 9.34 0 10.418 0 11.554c0 2.275.486 4.312 1.443 6.05.96 1.744 2.317 3.114 4.028 4.066 1.712.954 3.685 1.435 5.868 1.435 4.613 0 8-1.93 10.07-5.739l.125-.23-5.032-2.579-.113.255c-.42.932-1.01 1.698-1.752 2.27-.728.566-1.779.851-3.123.851-1.482 0-2.735-.456-3.723-1.354-.922-.835-1.445-1.903-1.552-3.17h15.908v-2.114z" mask="url(#9ytfy9kixb)"/>
                    </g>
                    <path fill="#07553F" d="M34.594 35.31L34.118 35.31 28.691 18.5 22.125 18.5 29.853 40.397 38.86 40.397 46.585 18.5 40.02 18.5z"/>
                    <mask id="a9ptqnx7qd" fill="#fff">
                        <use xlink:href="#m61axb4iwc"/>
                    </mask>
                    <path fill="#07553F" d="M48.507 40.397L54.597 40.397 54.597 18.5 48.507 18.5zM68.272 11.862h-6.09v6.639h-5.47v4.912h5.47V35.31c0 .058 0 .116.004.173l-.004 4.916H73.742v-4.916h-5.47V23.413h6v-4.912h-6v-6.639zM81.997 26.732c.208-1.034.716-1.895 1.513-2.563.872-.73 2.009-1.1 3.379-1.1 1.337 0 2.443.37 3.287 1.098.77.666 1.254 1.53 1.436 2.565h-9.615zm15.832 2.456c0-2.187-.453-4.16-1.353-5.872-.9-1.716-2.189-3.064-3.829-4.007-1.638-.938-3.56-1.415-5.713-1.415-2.185 0-4.15.485-5.846 1.437-1.696.953-3.039 2.323-3.985 4.067-.47.87-.827 1.815-1.064 2.823-.238 1.012-.357 2.09-.357 3.227 0 2.274.486 4.311 1.445 6.05.96 1.744 2.315 3.114 4.028 4.066 1.708.953 3.683 1.435 5.868 1.435 4.613 0 8-1.93 10.07-5.74l.125-.23-5.032-2.578-.113.254c-.422.934-1.012 1.699-1.754 2.271-.727.565-1.777.85-3.121.85-1.482 0-2.736-.456-3.723-1.353-.922-.836-1.445-1.904-1.554-3.17h15.908v-2.115zM116.36 31.257c-.252 1.402-.812 2.514-1.664 3.306-.842.781-2.034 1.177-3.546 1.177-1.649 0-3.015-.565-4.06-1.682-1.053-1.123-1.585-2.674-1.585-4.61 0-1.934.532-3.485 1.585-4.61 1.045-1.115 2.411-1.682 4.06-1.682 1.508 0 2.693.408 3.52 1.217.835.816 1.345 1.897 1.512 3.21l.035.28 5.92-1.232-.05-.25c-.511-2.55-1.736-4.622-3.642-6.163-1.908-1.54-4.392-2.322-7.382-2.322-2.153 0-4.143.498-5.91 1.477-1.771.983-3.184 2.371-4.203 4.128-1.017 1.755-1.534 3.757-1.534 5.948 0 2.189.517 4.191 1.534 5.946 1.019 1.757 2.434 3.147 4.202 4.128 1.768.98 3.758 1.477 5.911 1.477 2.99 0 5.467-.774 7.36-2.3 1.887-1.523 3.179-3.57 3.837-6.085l.067-.254-5.918-1.375-.049.27zM145.796 22.606c-.725-1.388-1.768-2.489-3.1-3.272-1.33-.783-2.876-1.179-4.592-1.179-3.315 0-5.612 1.13-6.822 3.361h-.015V9.706h-6.088v30.691h6.088V29.103c0-1.911.454-3.414 1.35-4.468.885-1.039 2.151-1.566 3.767-1.566 1.447 0 2.555.38 3.295 1.127.74.752 1.115 1.91 1.115 3.442v12.76h6.09v-13.02c0-1.785-.366-3.391-1.088-4.772M48.507 15.526L54.597 15.526 54.597 9.576 48.507 9.576z" mask="url(#a9ptqnx7qd)"/>
                </g>
            </g>
        </g>
    </g>
</svg>
