<svg xmlns="http://www.w3.org/2000/svg" width="44" height="45" viewBox="0 0 44 45">
    <defs>
        <filter id="fwd44m210a" color-interpolation-filters="auto">
            <feColorMatrix in="SourceGraphic" values="0 0 0 0 0.933333 0 0 0 0 0.462745 0 0 0 0 0.137255 0 0 0 1.000000 0"/>
        </filter>
        <filter id="ri2ufrdadb" color-interpolation-filters="auto">
            <feColorMatrix in="SourceGraphic" values="0 0 0 0 0.933333 0 0 0 0 0.462745 0 0 0 0 0.137255 0 0 0 1.000000 0"/>
        </filter>
        <filter id="gx2nnpzhkc" color-interpolation-filters="auto">
            <feColorMatrix in="SourceGraphic" values="0 0 0 0 0.933333 0 0 0 0 0.462745 0 0 0 0 0.137255 0 0 0 1.000000 0"/>
        </filter>
        <filter id="ay6bdb176d" color-interpolation-filters="auto">
            <feColorMatrix in="SourceGraphic" values="0 0 0 0 0.933333 0 0 0 0 0.462745 0 0 0 0 0.137255 0 0 0 1.000000 0"/>
        </filter>
    </defs>
    <g fill="none" fill-rule="evenodd">
        <g>
            <g>
                <g>
                    <path stroke="#EE7623" stroke-width="3.404" d="M29.487 5.116c6.745 6.822 6.745 17.883 0 24.706-6.745 6.822-17.682 6.822-24.428 0-6.745-6.823-6.745-17.884 0-24.706 6.746-6.821 17.683-6.821 24.428 0z" transform="translate(-210.000000, -2538.000000) translate(212.000000, 2540.000000)"/>
                    <g filter="url(#fwd44m210a)" transform="translate(-210.000000, -2538.000000) translate(212.000000, 2540.000000)">
                        <g>
                            <path fill="#E5E6E7" d="M0 0L10.622 10.742" transform="translate(29.825116, 30.667126)"/>
                            <path stroke="#050000" stroke-width="3.404" d="M0 0L10.622 10.742" transform="translate(29.825116, 30.667126)"/>
                        </g>
                    </g>
                    <g filter="url(#ri2ufrdadb)" transform="translate(-210.000000, -2538.000000) translate(212.000000, 2540.000000)">
                        <g>
                            <path fill="#E5E6E7" d="M0.821 0L0.821 11.324" transform="translate(16.451583, 13.616543)"/>
                            <path stroke="#050000" stroke-width="3.404" d="M0.821 0L0.821 11.324" transform="translate(16.451583, 13.616543)"/>
                        </g>
                    </g>
                    <g filter="url(#gx2nnpzhkc)" transform="translate(-210.000000, -2538.000000) translate(212.000000, 2540.000000)">
                        <g>
                            <path fill="#E5E6E7" d="M0.821 0L0.821 8.031" transform="translate(9.857545, 16.908869)"/>
                            <path stroke="#050000" stroke-width="3.404" d="M0.821 0L0.821 8.031" transform="translate(9.857545, 16.908869)"/>
                        </g>
                    </g>
                </g>
                <g filter="url(#ay6bdb176d)" transform="translate(-210.000000, -2538.000000) translate(212.000000, 2540.000000)">
                    <g>
                        <path fill="#E5E6E7" d="M0.821 0L0.821 14.942" transform="translate(23.045620, 9.998091)"/>
                        <path stroke="#050000" stroke-width="3.404" d="M0.821 0L0.821 14.942" transform="translate(23.045620, 9.998091)"/>
                    </g>
                </g>
            </g>
        </g>
    </g>
</svg>
