<svg xmlns="http://www.w3.org/2000/svg" width="46" height="46" viewBox="0 0 46 46">
    <g fill="none" fill-rule="evenodd">
        <g>
            <g>
                <path stroke="#EE7623" stroke-width="3.404" d="M10.845 6.974L26.066 6.974M10.845 12.967L26.066 12.967M4.916 28.567L16.48 28.567M32.77 0v23.535c-.128-.017-.256-.017-.385-.017-5.021 0-9.1 4.125-9.1 9.204 0 1.035.176 2.039.496 2.96H0V0h32.77z" transform="translate(-539.000000, -2538.000000) translate(541.000000, 2540.000000)"/>
                <path stroke="#EE7623" stroke-width="3.404" d="M41.502 32.722c0 5.096-4.079 9.22-9.117 9.22-3.998 0-7.389-2.62-8.604-6.26-.32-.921-.495-1.925-.495-2.96 0-5.079 4.077-9.204 9.1-9.204.127 0 .255 0 .383.017 4.861.194 8.733 4.238 8.733 9.187z" transform="translate(-539.000000, -2538.000000) translate(541.000000, 2540.000000)"/>
                <path stroke="#EE7623" stroke-width="3.404" d="M28.831 30.949L32.502 34.662 38.955 28.136" transform="translate(-539.000000, -2538.000000) translate(541.000000, 2540.000000)"/>
                <path fill="#EE7623" d="M4.915 8.692L8.319 8.692 8.319 5.25 4.915 5.25zM4.915 14.688L8.319 14.688 8.319 11.246 4.915 11.246z" transform="translate(-539.000000, -2538.000000) translate(541.000000, 2540.000000)"/>
            </g>
        </g>
    </g>
</svg>
