<svg xmlns="http://www.w3.org/2000/svg" width="45" height="45" viewBox="0 0 45 45">
    <g fill="none" fill-rule="evenodd">
        <g stroke="#EE7623" stroke-width="3.404">
            <g>
                <path d="M24.307 40.968h-8.11l-.173-1.143c-.006-.037-.203-1.353-.46-3.238-1.117-.343-2.196-.81-3.218-1.391-1.28.982-2.234 1.695-2.603 1.969l-.945.7-5.733-5.794.675-.932c.004-.003.83-1.145 2.1-2.836-.483-.969-.87-1.984-1.15-3.029-2.063-.284-3.535-.51-3.576-.516L0 24.585v-8.199l1.129-.176c.445-.07 1.907-.29 3.875-.562.302-.89.685-1.754 1.138-2.581-1.424-1.893-2.398-3.233-2.405-3.243l-.672-.926L8.798 3.1l.922.685c.006.005 1.417 1.051 3.379 2.566.749-.375 1.529-.692 2.327-.945.334-2.517.598-4.258.6-4.27L16.196 0h8.11l.175 1.141s.261 1.722.598 4.265c.798.253 1.578.57 2.327.945 1.706-1.317 2.992-2.277 3.361-2.553l.94-.696 5.733 5.796-.677.932c-.006.01-.967 1.334-2.4 3.237.455.827.836 1.69 1.14 2.583 2.058.28 3.563.512 3.859.558l1.143.178v8.199l-1.13.176c-.016.003-1.48.228-3.561.515-.281 1.043-.667 2.058-1.149 3.027 1.246 1.658 2.093 2.826 2.118 2.866l.655.902-5.731 5.795-.968-.718c-.22-.163-1.202-.895-2.58-1.952-1.022.581-2.101 1.048-3.218 1.39-.266 1.961-.46 3.24-.462 3.249l-.172 1.133z" transform="translate(-864.000000, -2539.000000) translate(866.000000, 2541.000000)"/>
                <path d="M26.562 20.484c0 3.524-2.826 6.381-6.31 6.381-3.484 0-6.31-2.857-6.31-6.381s2.826-6.382 6.31-6.382c3.484 0 6.31 2.858 6.31 6.382z" transform="translate(-864.000000, -2539.000000) translate(866.000000, 2541.000000)"/>
            </g>
        </g>
    </g>
</svg>
