<svg xmlns="http://www.w3.org/2000/svg" xmlns:xlink="http://www.w3.org/1999/xlink" width="77" height="77" viewBox="0 0 77 77">
    <defs>
        <path id="xdrrtyqf7a" d="M0 0L77 0 77 77 0 77z"/>
    </defs>
    <g fill="none" fill-rule="evenodd">
        <g>
            <g>
                <g transform="translate(-681.000000, -2758.000000) translate(681.000000, 2758.000000)">
                    <mask id="e8p89kklmb" fill="#fff">
                        <use xlink:href="#xdrrtyqf7a"/>
                    </mask>
                    <path fill="#BEF0BF" d="M73.417 66.09l-7.352 7.352c-1.492 1.492-3.84 1.572-5.235.178L37.726 50.492c-.114-.115-.22-.24-.317-.37l12.708-12.713c.131.098.256.205.372.32l23.104 23.108c1.394 1.394 1.314 3.743-.176 5.235v.018zm-49.352-4.772c1.07 5.17.448 8.935-1.873 11.17-3.083 2.968-8.493 2.7-11.294 2.309l7.485-7.487c.244-.242.343-.593.264-.927L17.255 60.5v-.01c0-.02-.01-.042-.018-.061-.003-.013-.007-.025-.012-.036l-.018-.048-.021-.047c-.004-.01-.01-.019-.015-.028l-.032-.059V60.2c-.014-.023-.03-.047-.046-.068-.145-.19-.353-.32-.586-.37l-5.855-1.386c-.334-.079-.684.02-.927.262l-7.486 7.487c-.39-2.8-.663-8.2 2.317-11.295 2.218-2.34 5.97-2.973 11.147-1.89.326.068.664-.033.9-.268L52.66 16.6c.237-.236.338-.576.27-.902-1.07-5.17-.446-8.933 1.874-11.169 3.082-2.968 8.493-2.699 11.295-2.317L58.613 9.7c-.243.242-.343.593-.264.927l1.392 5.883v.012c.005.02.011.039.018.057.003.014.008.028.013.041l.015.041c.007.018.015.035.024.052l.01.021.038.068c.142.23.373.392.638.448l5.855 1.386c.333.08.684-.02.926-.262l7.486-7.487c.387 2.803.658 8.213-2.317 11.295-2.235 2.317-5.992 2.954-11.168 1.877-.323-.067-.658.033-.891.268L24.334 60.4c-.237.235-.339.573-.272.9l.003.018zM12.872 15.504c-.045-.044-.093-.084-.146-.12l-.02-.012c-.047-.03-.097-.056-.149-.078h-.016l-6.773-2.799-3.135-5.947 3.921-3.921 5.923 3.13 2.805 6.79c.023.056.051.11.084.16.039.059.083.112.134.16l19.047 19.054-2.625 2.625-19.05-19.042zM51.887 36.33c-.116-.116-.237-.224-.357-.328l9.894-9.893c5.623 1.069 9.817.21 12.476-2.551 4.865-5.06 2.575-14.536 2.475-14.937-.13-.53-.665-.853-1.195-.723-.175.043-.335.133-.462.261l-8.43 8.434-4.752-1.125-1.125-4.753 8.43-8.431c.387-.387.387-1.013 0-1.4-.126-.127-.285-.217-.46-.26-.4-.098-9.875-2.387-14.933 2.478-2.763 2.656-3.618 6.85-2.55 12.478L35.952 30.527 17.036 11.609 14.17 4.671c-.087-.212-.244-.387-.446-.495L6.832.53C6.448.327 5.976.4 5.67.708L.714 5.666c-.307.306-.38.776-.179 1.16l3.645 6.896c.108.204.284.364.498.452l6.935 2.865 18.91 18.914-14.945 14.94c-5.623-1.07-9.817-.212-12.476 2.55C-1.765 58.502.525 67.98.625 68.38c.085.345.35.618.693.713.086.025.176.037.266.037.262 0 .513-.104.698-.29l8.432-8.434 4.75 1.127 1.125 4.75-8.425 8.434c-.386.385-.387 1.01-.002 1.397.127.128.287.218.462.261 1.818.416 3.678.625 5.544.624 3.085 0 6.812-.62 9.39-3.102 2.762-2.656 3.617-6.849 2.55-12.478l9.895-9.89c.105.124.214.246.33.356L59.433 75c1.022 1.017 2.41 1.584 3.851 1.574 1.57-.006 3.073-.636 4.178-1.75l7.352-7.354c2.263-2.262 2.342-5.867.178-8.033L51.887 36.33z" mask="url(#e8p89kklmb)"/>
                </g>
                <g>
                    <path fill="#606060" d="M0 0L18.503 18.551" transform="translate(-681.000000, -2758.000000) translate(681.000000, 2758.000000) translate(44.612657, 49.448169)"/>
                    <path stroke="#BEF0BF" stroke-width="2.228" d="M0 0L18.503 18.551" transform="translate(-681.000000, -2758.000000) translate(681.000000, 2758.000000) translate(44.612657, 49.448169)"/>
                </g>
                <g>
                    <path fill="#606060" d="M0 0L18.503 18.551" transform="translate(-681.000000, -2758.000000) translate(681.000000, 2758.000000) translate(49.087302, 45.051554)"/>
                    <path stroke="#BEF0BF" stroke-width="2.228" d="M0 0L18.503 18.551" transform="translate(-681.000000, -2758.000000) translate(681.000000, 2758.000000) translate(49.087302, 45.051554)"/>
                </g>
            </g>
        </g>
    </g>
</svg>
