<svg xmlns="http://www.w3.org/2000/svg" width="25" height="21" viewBox="0 0 25 21">
    <defs>
        <filter id="igxhg77g1a" color-interpolation-filters="auto">
            <feColorMatrix in="SourceGraphic" values="0 0 0 0 1.000000 0 0 0 0 1.000000 0 0 0 0 1.000000 0 0 0 1.000000 0"/>
        </filter>
    </defs>
    <g fill="none" fill-rule="evenodd">
        <g>
            <g filter="url(#igxhg77g1a)" transform="translate(-1195.000000, -2514.000000) translate(0.000000, 2116.000000)">
                <g>
                    <path fill="#000" d="M7.862 20.314c9.434 0 14.594-7.816 14.594-14.594 0-.222 0-.443-.015-.663 1.004-.726 1.87-1.625 2.559-2.655-.936.415-1.93.687-2.946.807 1.07-.641 1.872-1.65 2.255-2.837-1.007.597-2.108 1.018-3.257 1.245C20.082.585 18.728 0 17.312 0c-2.816 0-5.134 2.318-5.134 5.134 0 .39.045.78.133 1.16C8.189 6.089 4.343 4.139 1.74.937c-1.354 2.33-.653 5.35 1.588 6.847C2.512 7.759 1.713 7.538 1 7.14v.065c0 2.432 1.73 4.546 4.115 5.028-.755.206-1.548.236-2.316.088.67 2.084 2.603 3.52 4.792 3.562-1.816 1.427-4.06 2.202-6.37 2.2-.408-.001-.816-.026-1.221-.074 2.345 1.505 5.075 2.303 7.862 2.3" transform="translate(1195.000000, 398.000000)"/>
                </g>
            </g>
        </g>
    </g>
</svg>
